solid outlet 
 facet normal  1.000000e+00  0.000000e+00  0.000000e+00
   outer loop
     vertex  1.000000e-02  0.000000e+00  1.000000e-02
     vertex  1.000000e-02  0.000000e+00  0.000000e+00
     vertex  1.000000e-02  1.000000e-02  0.000000e+00
   endloop
 endfacet
 facet normal  1.000000e+00 -0.000000e+00  0.000000e+00
   outer loop
     vertex  1.000000e-02  0.000000e+00  1.000000e-02
     vertex  1.000000e-02  1.000000e-02  0.000000e+00
     vertex  1.000000e-02  1.000000e-02  1.000000e-02
   endloop
 endfacet
endsolid outlet
